<?xml version="1.0" encoding="UTF-8"?>
<svg xmlns="http://www.w3.org/2000/svg" version="1.1" viewBox="0 0 26 26">
  <!-- Generator: Adobe Illustrator 29.0.0, SVG Export Plug-In . SVG Version: 2.1.0 Build 186)  -->
  <g id="Layer_1" shape-rendering="crispEdges">
    <polygon points="19 12 19 14 18 14 18 15 17 15 17 16 16 16 16 17 15 17 15 18 14 18 14 19 13 19 13 20 12 20 12 21 11 21 11 22 9 22 9 20 10 20 10 19 11 19 11 18 12 18 12 17 13 17 13 16 14 16 14 15 15 15 15 14 16 14 16 12 15 12 15 11 14 11 14 10 13 10 13 9 12 9 12 8 11 8 11 7 10 7 10 6 9 6 9 4 11 4 11 5 12 5 12 6 13 6 13 7 14 7 14 8 15 8 15 9 16 9 16 10 17 10 17 11 18 11 18 12 19 12"/>
  </g>
</svg>