<?xml version="1.0" encoding="UTF-8"?>
<svg xmlns="http://www.w3.org/2000/svg" version="1.1" viewBox="0 0 26 26">
  <!-- Generator: Adobe Illustrator 28.7.1, SVG Export Plug-In . SVG Version: 1.2.0 Build 142)  -->
  <g>
    <g id="Layer_1" shape-rendering="crispEdges">
      <rect x="2" width="22" height="2"/>
      <rect y="2" width="2" height="22"/>
      <rect x="24" y="2" width="2" height="22"/>
      <polygon points="9 14 9 15 10 15 10 16 11 16 11 17 12 17 12 18 13 18 13 20 11 20 11 19 10 19 10 18 9 18 9 17 8 17 8 16 7 16 7 15 6 15 6 14 5 14 5 12 6 12 6 11 7 11 7 10 8 10 8 9 9 9 9 8 10 8 10 7 11 7 11 6 13 6 13 8 12 8 12 9 11 9 11 10 10 10 10 11 9 11 9 12 21 12 21 14 9 14"/>
      <rect x="2" y="24" width="22" height="2"/>
    </g>
  </g>
</svg>