<?xml version="1.0" encoding="UTF-8"?>
<svg xmlns="http://www.w3.org/2000/svg" version="1.1" viewBox="0 0 26 26">
  <!-- Generator: Adobe Illustrator 29.0.0, SVG Export Plug-In . SVG Version: 2.1.0 Build 186)  -->
  <g id="Layer_1" shape-rendering="crispEdges">
    <polygon points="22 9 22 11 21 11 21 12 20 12 20 13 19 13 19 14 18 14 18 15 17 15 17 16 16 16 16 17 15 17 15 18 14 18 14 19 12 19 12 18 11 18 11 17 10 17 10 16 9 16 9 15 8 15 8 14 7 14 7 13 6 13 6 12 5 12 5 11 4 11 4 9 6 9 6 10 7 10 7 11 8 11 8 12 9 12 9 13 10 13 10 14 11 14 11 15 12 15 12 16 14 16 14 15 15 15 15 14 16 14 16 13 17 13 17 12 18 12 18 11 19 11 19 10 20 10 20 9 22 9"/>
  </g>
</svg>