<?xml version="1.0" encoding="UTF-8"?>
<svg xmlns="http://www.w3.org/2000/svg" version="1.1" viewBox="0 0 26 26">
  <!-- Generator: Adobe Illustrator 29.0.0, SVG Export Plug-In . SVG Version: 2.1.0 Build 186)  -->
  <g id="Layer_1" shape-rendering="crispEdges">
    <polygon points="22 16 22 18 20 18 20 17 19 17 19 16 18 16 18 15 17 15 17 14 16 14 16 13 15 13 15 12 14 12 14 11 12 11 12 12 11 12 11 13 10 13 10 14 9 14 9 15 8 15 8 16 7 16 7 17 6 17 6 18 4 18 4 16 5 16 5 15 6 15 6 14 7 14 7 13 8 13 8 12 9 12 9 11 10 11 10 10 11 10 11 9 12 9 12 8 14 8 14 9 15 9 15 10 16 10 16 11 17 11 17 12 18 12 18 13 19 13 19 14 20 14 20 15 21 15 21 16 22 16"/>
  </g>
</svg>