<?xml version="1.0" encoding="UTF-8"?>
<svg xmlns="http://www.w3.org/2000/svg" version="1.1" viewBox="0 0 26 26">
  <!-- Generator: Adobe Illustrator 28.7.1, SVG Export Plug-In . SVG Version: 1.2.0 Build 142)  -->
  <g>
    <g id="Layer_1" shape-rendering="crispEdges">
      <rect x="2" width="22" height="2"/>
      <rect y="2" width="2" height="22"/>
      <rect x="24" y="2" width="2" height="22"/>
      <polygon points="20 13 20 15 19 15 19 16 18 16 18 17 17 17 17 18 16 18 16 19 15 19 15 20 14 20 14 21 12 21 12 20 11 20 11 19 10 19 10 18 9 18 9 17 8 17 8 16 7 16 7 15 6 15 6 13 8 13 8 14 9 14 9 15 10 15 10 16 11 16 11 17 12 17 12 5 14 5 14 17 15 17 15 16 16 16 16 15 17 15 17 14 18 14 18 13 20 13"/>
      <rect x="2" y="24" width="22" height="2"/>
    </g>
  </g>
</svg>