<?xml version="1.0" encoding="UTF-8"?>
<svg xmlns="http://www.w3.org/2000/svg" version="1.1" viewBox="0 0 26 26">
  <!-- Generator: Adobe Illustrator 28.7.1, SVG Export Plug-In . SVG Version: 1.2.0 Build 142)  -->
  <g>
    <g id="Layer_1" shape-rendering="crispEdges">
      <rect x="2" width="22" height="2"/>
      <rect y="2" width="2" height="22"/>
      <rect x="24" y="2" width="2" height="22"/>
      <path d="M20,9v-2h-1v-1h-1v-1h-1v-1h-8v1h-1v1h-1v1h-1v2h-1v8h1v2h1v1h1v1h1v1h8v-1h1v-1h1v-1h1v-2h1v-8h-1ZM19,16h-1v2h-1v1h-1v1h-6v-1h-1v-1h-1v-2h-1v-6h1v-2h1v-1h1v-1h6v1h1v1h1v2h1v6Z"/>
      <polygon points="17 10 17 16 16 16 16 17 15 17 15 18 11 18 11 16 14 16 14 15 15 15 15 10 17 10"/>
      <rect x="2" y="24" width="22" height="2"/>
    </g>
  </g>
</svg>