<?xml version="1.0" encoding="UTF-8"?>
<svg xmlns="http://www.w3.org/2000/svg" version="1.1" viewBox="0 0 26 26">
  <!-- Generator: Adobe Illustrator 28.7.1, SVG Export Plug-In . SVG Version: 1.2.0 Build 142)  -->
  <g>
    <g id="Layer_1" shape-rendering="crispEdges">
      <rect x="2" width="22" height="2"/>
      <rect y="2" width="2" height="22"/>
      <rect x="24" y="2" width="2" height="22"/>
      <polygon points="22 17 22 21 4 21 4 17 6 17 6 19 20 19 20 17 22 17"/>
      <polygon points="20 11 20 13 19 13 19 14 18 14 18 15 17 15 17 16 16 16 16 17 15 17 15 18 14 18 14 19 12 19 12 18 11 18 11 17 10 17 10 16 9 16 9 15 8 15 8 14 7 14 7 13 6 13 6 11 8 11 8 12 9 12 9 13 10 13 10 14 11 14 11 15 12 15 12 5 14 5 14 15 15 15 15 14 16 14 16 13 17 13 17 12 18 12 18 11 20 11"/>
      <rect x="2" y="24" width="22" height="2"/>
    </g>
  </g>
</svg>