<?xml version="1.0" encoding="UTF-8"?>
<svg id="Layer_1" xmlns="http://www.w3.org/2000/svg" version="1.1" viewBox="0 0 26 26">
  <!-- Generator: Adobe Illustrator 29.0.0, SVG Export Plug-In . SVG Version: 2.1.0 Build 186)  -->
  <g id="Layer_11" data-name="Layer_1" shape-rendering="crispEdges">
    <polygon points="15 12 15 14 16 14 16 15 17 15 17 16 18 16 18 17 19 17 19 18 20 18 20 20 18 20 18 19 17 19 17 18 16 18 16 17 15 17 15 16 14 16 14 15 12 15 12 16 11 16 11 17 10 17 10 18 9 18 9 19 8 19 8 20 6 20 6 18 7 18 7 17 8 17 8 16 9 16 9 15 10 15 10 14 11 14 11 12 10 12 10 11 9 11 9 10 8 10 8 9 7 9 7 8 6 8 6 6 8 6 8 7 9 7 9 8 10 8 10 9 11 9 11 10 12 10 12 11 14 11 14 10 15 10 15 9 16 9 16 8 17 8 17 7 18 7 18 6 20 6 20 8 19 8 19 9 18 9 18 10 17 10 17 11 16 11 16 12 15 12"/>
  </g>
</svg>