<?xml version="1.0" encoding="UTF-8"?>
<svg id="Layer_1" xmlns="http://www.w3.org/2000/svg" version="1.1" viewBox="0 0 26 26">
  <!-- Generator: Adobe Illustrator 29.0.0, SVG Export Plug-In . SVG Version: 2.1.0 Build 186)  -->
  <g id="Layer_11" data-name="Layer_1" shape-rendering="crispEdges">
    <path d="M22,12v-1h-1v-1h-1v-1h-2v-1h-2v-1h-6v1h-2v1h-2v1h-1v1h-1v1h-1v2h1v1h1v1h1v1h2v1h2v1h6v-1h2v-1h2v-1h1v-1h1v-1h1v-2h-1ZM20,14h-1v1h-2v1h-2v1h-4v-1h-2v-1h-2v-1h-1v-2h1v-1h2v-1h2v-1h4v1h2v1h2v1h1v2Z"/>
    <polygon points="15 12 15 14 14 14 14 15 12 15 12 14 11 14 11 12 12 12 12 11 14 11 14 12 15 12"/>
  </g>
</svg>