<?xml version="1.0" encoding="UTF-8"?>
<svg xmlns="http://www.w3.org/2000/svg" version="1.1" viewBox="0 0 26 26">
  <!-- Generator: Adobe Illustrator 29.0.0, SVG Export Plug-In . SVG Version: 2.1.0 Build 186)  -->
  <g id="Layer_1" shape-rendering="crispEdges">
    <rect x="2" width="22" height="2"/>
    <rect y="2" width="2" height="22"/>
    <rect x="24" y="2" width="2" height="22"/>
    <polygon points="17 7 17 11 16 11 16 12 15 12 15 13 14 13 14 16 12 16 12 12 13 12 13 11 14 11 14 10 15 10 15 8 14 8 14 7 11 7 11 8 10 8 10 10 8 10 8 7 9 7 9 6 10 6 10 5 15 5 15 6 16 6 16 7 17 7"/>
    <rect x="12" y="18" width="2" height="2"/>
    <rect x="2" y="24" width="22" height="2"/>
  </g>
</svg>