<?xml version="1.0" encoding="UTF-8"?>
<svg xmlns="http://www.w3.org/2000/svg" version="1.1" viewBox="0 0 26 26">
  <!-- Generator: Adobe Illustrator 28.7.1, SVG Export Plug-In . SVG Version: 1.2.0 Build 142)  -->
  <g>
    <g id="Layer_1" shape-rendering="crispEdges">
      <rect x="2" width="22" height="2"/>
      <rect y="2" width="2" height="22"/>
      <rect x="24" y="2" width="2" height="22"/>
      <path d="M20,12v-1h-2v-1h-2v-1h-2v-1h-2v-1h-2v-1h-2v-1h-3v16h3v-1h2v-1h2v-1h2v-1h2v-1h2v-1h2v-1h2v-2h-2ZM17,14h-2v1h-2v1h-2v1h-2v1h-2v-10h2v1h2v1h2v1h2v1h2v2Z"/>
      <rect x="2" y="24" width="22" height="2"/>
    </g>
  </g>
</svg>