<?xml version="1.0" encoding="UTF-8"?>
<svg xmlns="http://www.w3.org/2000/svg" version="1.1" viewBox="0 0 26 26">
  <!-- Generator: Adobe Illustrator 28.7.1, SVG Export Plug-In . SVG Version: 1.2.0 Build 142)  -->
  <g>
    <g id="Layer_1" shape-rendering="crispEdges">
      <rect x="2" width="22" height="2"/>
      <rect y="2" width="2" height="22"/>
      <rect x="24" y="2" width="2" height="22"/>
      <polygon points="23 10 23 12 22 12 22 13 21 13 21 14 20 14 20 15 18 15 18 14 17 14 17 13 16 13 16 12 15 12 15 10 17 10 17 11 18 11 18 9 17 9 17 8 16 8 16 7 9 7 9 8 8 8 8 9 6 9 6 7 7 7 7 6 8 6 8 5 17 5 17 6 18 6 18 7 19 7 19 8 20 8 20 11 21 11 21 10 23 10"/>
      <polygon points="20 17 20 19 19 19 19 20 18 20 18 21 9 21 9 20 8 20 8 19 7 19 7 18 6 18 6 15 5 15 5 16 3 16 3 14 4 14 4 13 5 13 5 12 6 12 6 11 8 11 8 12 9 12 9 13 10 13 10 14 11 14 11 16 9 16 9 15 8 15 8 17 9 17 9 18 10 18 10 19 17 19 17 18 18 18 18 17 20 17"/>
      <rect x="2" y="24" width="22" height="2"/>
    </g>
  </g>
</svg>