<?xml version="1.0" encoding="UTF-8"?>
<svg xmlns="http://www.w3.org/2000/svg" version="1.1" viewBox="0 0 26 26">
  <!-- Generator: Adobe Illustrator 28.7.1, SVG Export Plug-In . SVG Version: 1.2.0 Build 142)  -->
  <g>
    <g id="Layer_1" shape-rendering="crispEdges">
      <rect x="2" width="22" height="2"/>
      <rect y="2" width="2" height="22"/>
      <rect x="24" y="2" width="2" height="22"/>
      <path d="M22,15v-4h-2v-2h1v-2h-1v-1h-1v-1h-2v1h-2v-2h-4v2h-2v-1h-2v1h-1v1h-1v2h1v2h-2v4h2v2h-1v2h1v1h1v1h2v-1h2v2h4v-2h2v1h2v-1h1v-1h1v-2h-1v-2h2ZM18,14v3h1v1h-1v1h-1v-1h-3v2h-2v-2h-3v1h-1v-1h-1v-1h1v-3h-2v-2h2v-3h-1v-1h1v-1h1v1h3v-2h2v2h3v-1h1v1h1v1h-1v3h2v2h-2Z"/>
      <path d="M15,11v-1h-4v1h-1v4h1v1h4v-1h1v-4h-1ZM14,14h-2v-2h2v2Z"/>
      <rect x="2" y="24" width="22" height="2"/>
    </g>
  </g>
</svg>