<?xml version="1.0" encoding="UTF-8"?>
<svg id="Layer_1" xmlns="http://www.w3.org/2000/svg" version="1.1" viewBox="0 0 26 26">
  <!-- Generator: Adobe Illustrator 29.0.0, SVG Export Plug-In . SVG Version: 2.1.0 Build 186)  -->
  <g id="Layer_11" data-name="Layer_1" shape-rendering="crispEdges">
    <polygon points="22 7 22 9 21 9 21 10 20 10 20 11 19 11 19 12 18 12 18 13 17 13 17 14 16 14 16 15 15 15 15 16 14 16 14 17 13 17 13 18 12 18 12 19 11 19 11 20 9 20 9 19 8 19 8 18 7 18 7 17 6 17 6 16 5 16 5 15 4 15 4 13 6 13 6 14 7 14 7 15 8 15 8 16 9 16 9 17 11 17 11 16 12 16 12 15 13 15 13 14 14 14 14 13 15 13 15 12 16 12 16 11 17 11 17 10 18 10 18 9 19 9 19 8 20 8 20 7 22 7"/>
  </g>
</svg>